<?xml version="1.0" encoding="UTF-8" standalone="no"?>
<!-- Created with Inkscape (http://www.inkscape.org/) -->

<svg
   width="24.036411mm"
   height="30.93124mm"
   viewBox="0 0 24.036411 30.93124"
   version="1.1"
   id="svg1"
   xmlns="http://www.w3.org/2000/svg"
   xmlns:svg="http://www.w3.org/2000/svg">
  <defs
     id="defs1" />
  <g
     id="layer1"
     style="display:none"
     transform="translate(-3.0097927,-1.5472211)">
    <path
       style="display:inline;fill:#0094b9;fill-opacity:1;stroke:#0d0d0d;stroke-width:0;stroke-opacity:0.956088;paint-order:stroke fill markers"
       d="M 53.696473,174.16084 C 69.843722,79.937616 82.653111,71.241704 88.0176,66.021379 c 5.847142,-3.615099 14.06906,-4.580632 18.01594,-2.62676 2.45089,1.213288 -0.12865,1.941479 -2.74712,2.965404 -7.604281,2.973568 -18.117357,30.166186 -31.151116,111.580497 -0.914874,5.71468 -6.316146,10.25364 -12.102332,10.13197 -4.757482,-0.10004 -7.63487,-6.33533 -6.336499,-13.91165 z"
       id="path1"
       transform="matrix(0.33926396,0,0,0.24672394,-7.0076181,-4.3997207)" />
    <path
       style="fill:#004a5d;fill-opacity:1;stroke:#0d0d0d;stroke-width:0;stroke-opacity:0.956088;paint-order:stroke fill markers"
       d="m 107.35679,64.289769 c -2.62281,-2.843612 -4.92708,-0.09453 -9.891598,8.512807 12.984648,34.514244 14.976348,82.191054 15.256538,99.680774 0.06,3.74498 3.07067,6.81295 6.81632,6.85153 3.10666,0.032 5.79962,-3.66943 5.80526,-8.26979 0.0213,-17.39225 -1.73085,-59.73467 -17.03532,-105.048761 -0.17688,-0.523701 -0.57626,-1.320053 -0.9512,-1.72656 z"
       id="path2"
       transform="matrix(0.33926396,0,0,0.24672394,-7.0076181,-4.3997207)" />
    <ellipse
       style="fill:#006680;stroke:#0d0d0d;stroke-width:0;stroke-opacity:0.956088;paint-order:stroke fill markers"
       id="path3"
       cx="25.30055"
       cy="28.202009"
       rx="0.68913579"
       ry="0.74124908" />
  </g>
  <g
     id="g8"
     style="display:inline"
     transform="translate(-3.0097927,-1.5472211)">
    <g
       id="g1"
       transform="translate(-17.586335,-19.457221)"
       style="display:inline">
      <path
         style="display:inline;fill:#0094b9;fill-opacity:1;stroke:#0d0d0d;stroke-width:0;stroke-opacity:0.956088;paint-order:stroke fill markers"
         d="M 54.724655,174.15987 C 69.058588,90.080661 80.049858,74.10506 86.061996,67.930482 87.114963,66.849065 88.96738,65.224027 90.314327,64.548379 96.11796,61.637194 105.5157,62.364239 111.68111,79.400656 96.690594,62.947155 92.301834,80.610195 84.612297,177.70213 c -0.456922,5.76932 -5.508437,10.40849 -11.295706,10.36088 l -6.945953,-0.0571 c -7.686542,-0.0632 -12.937796,-6.26854 -11.645983,-13.84599 z"
         id="path5"
         transform="matrix(0.33926396,0,0,0.24672394,2.4457857,5.4027672)" />
      <path
         style="display:inline;fill:#004a5d;fill-opacity:1;stroke:#0d0d0d;stroke-width:0;stroke-opacity:0.956088;paint-order:stroke fill markers"
         d="M 103.15649,70.902678 C 100.0653,71.09852 97.724303,75.074626 95.600651,85.173513 105.6017,101.2827 106.2915,153.69266 106.2056,172.48339 c -0.0171,3.74561 2.95796,6.80278 6.70371,6.82888 l 3.23414,0.0225 c 4.60069,0.032 8.15285,-3.66755 7.8808,-8.26027 -1.18849,-20.06332 -4.85077,-70.98408 -12.36046,-91.69051 -1.21605,-3.352981 -5.01367,-8.702679 -8.5073,-8.481342 z"
         id="path6"
         transform="matrix(0.33926396,0,0,0.24672394,2.4457857,5.4027672)" />
      <ellipse
         style="fill:#006680;stroke:#0d0d0d;stroke-width:0;stroke-opacity:0.956088;paint-order:stroke fill markers"
         id="ellipse6"
         cx="35.504658"
         cy="38.362827"
         rx="0.68913579"
         ry="0.74124908" />
    </g>
  </g>
</svg>
